<?xml version="1.0" standalone="no"?>
<!DOCTYPE svg PUBLIC "-//W3C//DTD SVG 20010904//EN"
 "http://www.w3.org/TR/2001/REC-SVG-20010904/DTD/svg10.dtd">
<svg version="1.0" xmlns="http://www.w3.org/2000/svg"
 width="139.000000pt" height="139.000000pt" viewBox="0 0 139.000000 139.000000"
 preserveAspectRatio="xMidYMid meet">

<g transform="translate(0.000000,139.000000) scale(0.100000,-0.100000)"
fill="#000000" stroke="none">
<path d="M260 763 l-22 -28 116 -5 c99 -4 114 -7 106 -20 -17 -26 -11 -30 39
-30 41 0 51 4 65 25 21 32 13 63 -21 76 -13 5 -78 9 -143 9 -117 0 -119 0
-140 -27z"/>
<path d="M635 748 c-16 -23 -34 -48 -38 -55 -6 -10 19 -13 136 -13 l143 0 37
53 37 52 -53 3 c-49 3 -54 1 -83 -32 -46 -53 -91 -48 -53 5 l20 29 -58 0 c-57
0 -59 -1 -88 -42z"/>
<path d="M957 740 c-20 -27 -37 -52 -37 -55 0 -3 26 -5 59 -5 58 0 59 1 95 47
20 25 36 50 36 55 0 4 -26 8 -58 8 -58 0 -58 0 -95 -50z"/>
<path d="M267 670 c-20 -27 -37 -55 -37 -61 0 -8 33 -10 113 -8 96 4 117 7
150 27 20 13 37 27 37 31 0 4 -29 5 -64 3 -65 -4 -90 8 -67 31 21 21 11 27
-42 27 -52 0 -54 -1 -90 -50z"/>
<path d="M50 658 c0 -5 41 -8 92 -8 50 0 89 2 86 5 -8 8 -178 11 -178 3z"/>
<path d="M1018 662 c-119 -3 -147 -12 -128 -42 7 -11 37 -16 120 -18 106 -4
111 -3 130 19 36 44 32 45 -122 41z"/>
<path d="M1195 660 c-4 -6 20 -10 69 -10 42 0 76 3 76 8 0 11 -138 14 -145 2z"/>
<path d="M552 635 c-17 -36 -18 -35 39 -35 40 0 55 5 70 23 10 12 18 25 19 30
0 4 -26 7 -58 7 -53 0 -60 -2 -70 -25z"/>
<path d="M726 638 c-24 -34 -20 -38 38 -38 49 0 57 3 76 30 l21 30 -60 0 c-51
0 -62 -3 -75 -22z"/>
<path d="M93 633 c26 -2 67 -2 90 0 23 2 2 3 -48 3 -50 0 -68 -1 -42 -3z"/>
<path d="M1213 633 c26 -2 67 -2 90 0 23 2 2 3 -48 3 -49 0 -68 -1 -42 -3z"/>
<path d="M50 610 c0 -6 30 -10 69 -10 39 0 73 5 76 10 4 6 -22 10 -69 10 -44
0 -76 -4 -76 -10z"/>
<path d="M1155 610 c-4 -6 28 -10 89 -10 57 0 96 4 96 10 0 6 -36 10 -89 10
-50 0 -93 -4 -96 -10z"/>
</g>
</svg>
